<svg xmlns="http://www.w3.org/2000/svg" xmlns:xlink="http://www.w3.org/1999/xlink" version="1.1" width="256"
     height="256" viewBox="0 0 256 256" xml:space="preserve">
      <defs>
    </defs>
  <g style="stroke: none; stroke-width: 0; stroke-dasharray: none; stroke-linecap: butt; stroke-linejoin: miter; stroke-miterlimit: 10; fill: none; fill-rule: nonzero; opacity: 1;"
     transform="translate(1.4065934065934016 1.4065934065934016) scale(2.81 2.81)">
      <path d="M 75.841 66.698 c -4.459 0 -8.087 -3.628 -8.087 -8.088 c 0 -4.459 3.628 -8.087 8.087 -8.087 s 8.087 3.628 8.087 8.087 C 83.928 63.07 80.3 66.698 75.841 66.698 z M 75.841 53.523 c -2.805 0 -5.087 2.282 -5.087 5.087 c 0 2.806 2.282 5.088 5.087 5.088 s 5.087 -2.282 5.087 -5.088 C 80.928 55.806 78.646 53.523 75.841 53.523 z"
            style="stroke: none; stroke-width: 1; stroke-dasharray: none; stroke-linecap: butt; stroke-linejoin: miter; stroke-miterlimit: 10; fill: rgb(0,0,0); fill-rule: nonzero; opacity: 1;"
            transform=" matrix(1 0 0 1 0 0) " stroke-linecap="round"/>
    <path d="M 19.947 66.698 c -4.459 0 -8.087 -3.628 -8.087 -8.088 c 0 -4.459 3.628 -8.087 8.087 -8.087 s 8.087 3.628 8.087 8.087 C 28.034 63.07 24.406 66.698 19.947 66.698 z M 19.947 53.523 c -2.805 0 -5.087 2.282 -5.087 5.087 c 0 2.806 2.282 5.088 5.087 5.088 s 5.087 -2.282 5.087 -5.088 C 25.034 55.806 22.752 53.523 19.947 53.523 z"
          style="stroke: none; stroke-width: 1; stroke-dasharray: none; stroke-linecap: butt; stroke-linejoin: miter; stroke-miterlimit: 10; fill: rgb(0,0,0); fill-rule: nonzero; opacity: 1;"
          transform=" matrix(1 0 0 1 0 0) " stroke-linecap="round"/>
    <path d="M 75.84 61.609 c -0.19 0 -0.39 -0.02 -0.58 -0.06 c -0.2 -0.04 -0.39 -0.1 -0.57 -0.17 c -0.18 -0.07 -0.35 -0.17 -0.51 -0.28 c -0.17 -0.1 -0.32 -0.229 -0.46 -0.37 c -0.56 -0.56 -0.88 -1.33 -0.88 -2.12 s 0.32 -1.56 0.88 -2.119 c 0.14 -0.141 0.29 -0.261 0.45 -0.37 c 0.17 -0.11 0.34 -0.2 0.52 -0.28 c 0.181 -0.07 0.37 -0.13 0.561 -0.17 c 0.99 -0.2 2.02 0.12 2.71 0.82 c 0.56 0.56 0.88 1.329 0.88 2.119 s -0.32 1.561 -0.88 2.12 C 77.819 60.87 77.67 61 77.51 61.1 c -0.17 0.11 -0.34 0.21 -0.52 0.28 c -0.181 0.07 -0.37 0.13 -0.561 0.17 C 76.229 61.59 76.04 61.609 75.84 61.609 z"
          style="stroke: none; stroke-width: 1; stroke-dasharray: none; stroke-linecap: butt; stroke-linejoin: miter; stroke-miterlimit: 10; fill: rgb(0,0,0); fill-rule: nonzero; opacity: 1;"
          transform=" matrix(1 0 0 1 0 0) " stroke-linecap="round"/>
    <path d="M 19.95 61.609 c -0.2 0 -0.4 -0.02 -0.59 -0.06 s -0.38 -0.1 -0.56 -0.17 s -0.36 -0.17 -0.52 -0.28 c -0.16 -0.109 -0.32 -0.229 -0.45 -0.37 c -0.56 -0.56 -0.88 -1.33 -0.88 -2.12 c 0 -0.189 0.02 -0.39 0.06 -0.59 c 0.03 -0.189 0.09 -0.37 0.17 -0.56 c 0.07 -0.18 0.16 -0.351 0.27 -0.51 c 0.11 -0.17 0.24 -0.32 0.37 -0.46 c 0.14 -0.141 0.3 -0.261 0.46 -0.37 c 0.16 -0.11 0.34 -0.21 0.52 -0.28 s 0.37 -0.13 0.56 -0.17 c 0.97 -0.2 2.01 0.12 2.71 0.82 c 0.56 0.56 0.88 1.329 0.88 2.119 s -0.32 1.561 -0.88 2.12 c -0.14 0.141 -0.29 0.261 -0.46 0.37 c -0.16 0.11 -0.33 0.21 -0.52 0.28 c -0.18 0.07 -0.37 0.13 -0.56 0.17 S 20.14 61.609 19.95 61.609 z"
          style="stroke: none; stroke-width: 1; stroke-dasharray: none; stroke-linecap: butt; stroke-linejoin: miter; stroke-miterlimit: 10; fill: rgb(0,0,0); fill-rule: nonzero; opacity: 1;"
          transform=" matrix(1 0 0 1 0 0) " stroke-linecap="round"/>
    <path d="M 87.377 43.279 l -9.706 -4.472 l -9.659 -11.621 c -2.052 -2.468 -5.07 -3.884 -8.279 -3.884 H 5.299 C 2.377 23.302 0 25.679 0 28.601 v 25.988 c 0 3.059 2.488 5.547 5.551 5.547 l 4.434 -0.014 c -0.075 -0.494 -0.126 -0.996 -0.126 -1.511 c 0 -5.562 4.525 -10.087 10.087 -10.087 s 10.087 4.525 10.087 10.087 c 0 0.511 -0.05 1.009 -0.124 1.5 h 35.968 c -0.074 -0.491 -0.124 -0.989 -0.124 -1.5 c 0 -5.562 4.525 -10.087 10.087 -10.087 s 10.087 4.525 10.087 10.087 c 0 0.518 -0.052 1.024 -0.127 1.521 l 0.64 0.004 c 1.963 0 3.56 -1.597 3.56 -3.56 v -9.2 C 90 45.622 88.971 44.013 87.377 43.279 z M 57.163 38.528 c -0.318 0 -0.578 -0.259 -0.578 -0.578 V 26.302 h 3.147 c 2.315 0 4.492 1.021 5.973 2.802 l 7.832 9.424 H 57.163 z"
          style="stroke: none; stroke-width: 1; stroke-dasharray: none; stroke-linecap: butt; stroke-linejoin: miter; stroke-miterlimit: 10; fill: rgb(0,0,0); fill-rule: nonzero; opacity: 1;"
          transform=" matrix(1 0 0 1 0 0) " stroke-linecap="round"/>
    </g>
    </svg>
